<?xml version="1.0" standalone="no"?>
<!DOCTYPE svg PUBLIC "-//W3C//DTD SVG 20010904//EN"
 "http://www.w3.org/TR/2001/REC-SVG-20010904/DTD/svg10.dtd">
<svg version="1.0" xmlns="http://www.w3.org/2000/svg"
 width="700.000000pt" height="700.000000pt" viewBox="0 0 700.000000 700.000000"
 preserveAspectRatio="xMidYMid meet">
<metadata>
Created by potrace 1.16, written by Peter Selinger 2001-2019
</metadata>
<g transform="translate(0.000000,700.000000) scale(0.100000,-0.100000)"
fill="#000000" stroke="none">
<path d="M3254 6680 c-45 -27 -74 -59 -74 -79 0 -39 58 -88 74 -63 7 12 -12
38 -21 29 -4 -5 -1 -12 7 -17 10 -6 11 -10 3 -10 -17 0 -46 46 -40 62 4 8 8 5
12 -9 4 -13 11 -20 16 -17 5 3 40 8 77 10 48 4 81 13 117 33 28 15 64 33 80
38 l30 11 -35 15 c-53 23 -208 21 -246 -3z"/>
<path d="M4368 6683 c22 -19 62 -90 62 -110 0 -7 20 -35 45 -63 25 -28 45 -53
45 -56 0 -3 -19 9 -42 28 -23 18 -46 33 -51 33 -5 0 -15 11 -23 25 -14 23 -14
20 -9 -45 6 -80 -6 -72 -24 16 -14 67 -54 119 -113 147 -56 27 -160 37 -218
22 -25 -6 -67 -16 -95 -20 -27 -5 -84 -18 -125 -29 -49 -12 -81 -16 -92 -10
-27 15 -73 10 -119 -11 -24 -11 -60 -19 -79 -19 l-35 1 35 7 c19 4 58 18 85
30 28 12 73 24 100 27 28 2 82 10 120 18 l70 14 -112 1 c-153 1 -257 -24 -373
-90 l-35 -20 39 6 c23 4 42 2 45 -4 6 -10 33 -7 241 24 l35 5 -42 -20 c-24
-12 -73 -23 -110 -26 -65 -5 -110 -12 -233 -36 -76 -15 -98 -30 -35 -24 28 3
73 7 100 10 l50 5 -45 -9 c-25 -6 -81 -15 -124 -21 -44 -6 -104 -22 -133 -35
-44 -19 -58 -21 -78 -12 -19 8 -28 8 -41 -3 -10 -8 -40 -14 -68 -15 -63 -1
-95 -9 -115 -28 -13 -14 -13 -16 2 -22 10 -3 23 -2 30 4 6 5 32 12 57 16 l45
6 -40 -13 c-24 -8 -35 -16 -28 -20 6 -4 18 -4 27 -1 12 5 15 2 10 -10 -3 -9
-1 -23 6 -31 10 -12 6 -13 -24 -8 -20 3 -36 3 -36 0 0 -3 19 -17 42 -31 l41
-25 -41 6 c-49 7 -54 -6 -14 -36 l27 -21 -33 11 c-19 7 -37 21 -42 35 -5 12
-19 28 -30 34 -19 10 -21 10 -16 -8 5 -13 1 -22 -10 -26 -10 -4 -14 -13 -11
-26 3 -12 -1 -21 -12 -24 -9 -2 2 -2 24 0 38 5 39 4 21 -10 -11 -9 -25 -16
-32 -16 -6 0 -17 -7 -24 -15 -7 -8 -8 -15 -3 -15 6 0 23 -10 38 -22 23 -18 25
-22 11 -30 -13 -8 -13 -13 4 -53 11 -25 17 -45 14 -45 -3 0 -12 16 -20 35 -8
19 -27 41 -44 50 -16 8 -37 29 -46 46 -14 29 -14 32 2 50 14 15 14 19 3 14 -9
-3 -23 -25 -33 -48 -39 -94 -54 -133 -62 -162 -5 -16 -19 -34 -32 -40 -25 -11
-30 -50 -7 -59 14 -5 13 -11 -5 -46 -22 -42 -18 -49 14 -25 33 25 39 17 13
-15 -14 -16 -28 -49 -32 -72 -3 -24 -9 -52 -12 -63 -5 -15 2 -13 32 13 20 18
39 31 42 29 2 -3 -18 -49 -45 -104 -28 -54 -57 -124 -66 -155 -9 -31 -21 -58
-27 -60 -30 -10 -26 -196 7 -301 8 -26 13 -51 10 -56 -3 -5 -23 -11 -44 -15
-63 -10 -77 -34 -77 -135 0 -91 20 -164 37 -139 6 9 7 6 3 -10 -4 -15 7 -52
36 -115 23 -50 45 -96 49 -100 4 -4 19 -3 33 2 23 9 27 16 27 52 0 28 4 39 13
36 7 -2 11 -16 9 -33 -6 -57 -3 -96 8 -109 9 -11 6 -20 -13 -39 -14 -14 -22
-27 -19 -30 13 -13 70 -4 106 17 l38 22 3 225 c1 124 6 239 12 255 9 27 14 30
60 33 36 2 52 -1 56 -11 3 -8 13 -63 22 -123 9 -60 20 -130 26 -155 9 -40 7
-50 -11 -82 -12 -20 -19 -41 -15 -47 3 -5 1 -10 -5 -10 -6 0 -8 -4 -5 -10 3
-5 -9 -16 -27 -24 -32 -15 -32 -15 32 -10 36 3 81 10 100 15 56 14 72 11 129
-25 29 -19 71 -38 92 -41 21 -4 39 -11 39 -16 0 -20 -46 -30 -95 -22 -40 7
-51 13 -53 30 -4 29 -26 35 -74 22 -33 -8 -43 -8 -57 5 -15 14 -37 16 -93 7
-4 0 -20 -19 -34 -41 -28 -42 -48 -50 -58 -25 -5 14 -9 14 -36 0 -38 -19 -55
-51 -51 -95 3 -42 27 -90 44 -91 30 -1 -33 -18 -73 -18 -51 -1 -57 -4 -88 -45
-27 -36 -28 -57 -1 -87 19 -23 20 -23 10 -2 -15 29 -14 58 2 71 10 9 17 1 31
-38 19 -54 42 -64 80 -35 48 37 63 -1 19 -47 -15 -15 -34 -28 -42 -28 -9 0
-44 18 -79 41 -34 22 -70 39 -79 37 -9 -2 -26 -18 -36 -36 -29 -49 -17 -91 33
-122 47 -29 61 -64 36 -88 -16 -16 -19 -15 -37 7 -10 12 -42 48 -70 79 l-51
56 -19 -25 c-10 -13 -19 -28 -19 -33 0 -5 18 -29 41 -53 43 -47 45 -65 5 -44
-22 12 -56 68 -56 93 0 13 -30 37 -47 38 -18 0 -16 -42 3 -101 19 -57 26 -64
52 -50 29 15 35 1 11 -25 l-21 -22 29 -18 c15 -10 35 -27 45 -38 15 -18 19
-19 45 -6 47 24 49 24 24 -4 -36 -39 -87 -36 -126 7 -16 18 -24 25 -16 15 10
-13 11 -18 2 -18 -19 0 -71 30 -71 41 0 5 -12 22 -26 36 -18 18 -23 28 -15 36
8 8 2 19 -21 40 -18 16 -26 26 -18 22 12 -6 12 -5 3 5 -16 17 -108 26 -117 11
-4 -6 -14 -11 -23 -11 -13 0 -13 3 -3 15 10 13 9 15 -11 16 -47 3 -109 -15
-109 -31 0 -5 21 -16 47 -25 56 -20 101 -42 396 -193 201 -103 252 -133 299
-170 15 -12 12 -23 -37 -125 -55 -115 -93 -158 -139 -156 -16 0 -14 4 12 15
38 16 98 102 82 118 -11 11 -36 -7 -52 -38 -10 -19 -8 -18 16 3 36 34 33 9 -5
-34 -28 -32 -36 -35 -85 -35 -64 0 -131 19 -139 39 -3 8 4 25 16 38 38 39 -1
27 -43 -14 -21 -20 -40 -35 -42 -32 -2 2 8 22 22 43 29 42 84 69 121 59 26 -7
26 -4 0 -48 -28 -48 -15 -58 22 -17 18 20 38 32 55 32 31 0 28 -23 -4 -28 -26
-4 -30 -22 -5 -22 9 0 31 14 49 31 18 17 47 34 65 38 26 5 39 17 62 56 20 35
26 54 20 64 -11 17 -140 87 -147 80 -3 -3 6 -19 20 -37 20 -25 33 -32 60 -32
44 0 52 -20 30 -67 -22 -45 -32 -37 -12 10 17 42 14 47 -30 47 -18 0 -36 5
-40 11 -3 6 -19 9 -35 5 -15 -3 -31 -2 -33 3 -6 9 -59 24 -90 26 -25 1 -39 48
-24 80 l11 24 38 -19 c21 -11 42 -20 46 -20 21 2 -105 59 -129 60 -16 0 -28 4
-28 8 0 5 -12 14 -27 21 -26 12 -30 10 -63 -28 -35 -41 -57 -54 -47 -27 4 9 1
13 -7 10 -7 -3 -29 7 -50 21 -26 18 -50 25 -82 25 -50 0 -76 11 -116 47 -19
18 -32 23 -48 18 -14 -4 -28 -1 -40 10 -14 13 -23 14 -39 6 -22 -12 -61 -14
-85 -5 -11 4 -5 16 27 50 44 47 66 54 88 28 9 -11 22 -14 45 -9 25 4 36 1 46
-13 9 -14 26 -19 58 -19 29 0 80 -15 145 -41 55 -23 92 -35 82 -28 -10 8 -57
30 -105 51 -48 20 -99 43 -114 51 -14 8 -40 14 -56 14 -17 0 -34 5 -37 10 -4
6 -63 10 -143 10 -126 0 -144 -2 -228 -30 -97 -33 -174 -75 -263 -143 -30 -23
-73 -55 -97 -72 -56 -40 -124 -103 -124 -116 0 -6 -9 -24 -21 -40 -21 -30 -21
-38 -3 -126 3 -18 12 -33 18 -33 7 0 16 -11 22 -24 l9 -24 72 22 c39 12 82 31
95 42 13 12 44 35 69 52 25 17 54 43 63 57 25 38 124 99 213 130 43 15 102 38
132 51 78 35 88 33 191 -22 65 -36 130 -63 183 -79 31 -9 57 -20 57 -24 0 -10
-125 -131 -137 -132 -19 -2 -61 -8 -99 -14 -27 -5 -44 -3 -48 4 -5 7 5 11 28
11 35 0 48 13 23 23 -7 2 -67 -3 -135 -12 -98 -14 -125 -15 -133 -5 -8 10 -2
21 23 43 18 17 41 33 51 36 9 4 17 10 17 15 0 5 25 35 55 65 53 53 62 75 29
75 -20 0 -143 -130 -144 -151 0 -9 -8 -22 -17 -30 -44 -35 -82 -47 -177 -54
-54 -4 -123 -15 -152 -25 -87 -30 -91 -36 -27 -37 68 0 202 -18 254 -33 20 -6
48 -19 61 -29 13 -11 40 -22 60 -26 21 -4 48 -20 65 -37 15 -16 44 -38 64 -48
31 -16 100 -90 84 -90 -3 0 -20 7 -36 16 -17 8 -33 13 -36 10 -3 -3 84 -49
193 -103 196 -97 260 -135 399 -239 89 -67 124 -93 205 -153 68 -50 227 -217
250 -261 10 -21 10 -23 -1 -12 -16 15 -76 15 -189 2 -116 -14 -298 -63 -460
-124 -99 -38 -169 -57 -225 -63 -22 -3 -55 -11 -74 -20 -24 -11 -48 -13 -80
-9 -25 4 -99 13 -163 21 -74 9 -136 22 -165 36 -27 12 -75 25 -108 30 -33 4
-61 12 -63 19 -2 6 -11 16 -19 23 -45 36 -63 58 -63 77 0 12 -11 36 -24 53
-27 37 -86 155 -86 172 0 6 12 17 27 24 32 15 20 26 -38 36 -21 4 -45 13 -56
20 -17 13 -17 14 6 39 20 21 21 26 8 26 -9 0 -17 5 -17 10 0 6 -14 10 -31 10
-24 0 -44 14 -100 70 -39 39 -77 70 -85 70 -23 0 -85 72 -82 95 4 29 -35 31
-72 5 -25 -18 -28 -25 -20 -41 6 -10 17 -19 24 -19 22 0 251 -195 264 -225 11
-24 10 -25 -7 -15 -11 5 -37 10 -59 10 -45 0 -102 21 -122 44 -16 20 -7 20 30
1 25 -13 29 -13 34 0 3 8 13 15 21 15 9 0 13 5 10 10 -5 8 -11 8 -20 0 -23
-19 -103 -4 -140 27 -79 65 -95 75 -95 60 0 -8 18 -30 40 -48 194 -161 315
-305 361 -429 11 -30 27 -65 35 -78 8 -12 12 -27 9 -32 -3 -6 1 -20 9 -32 19
-26 21 -16 4 15 -10 20 -10 21 5 8 10 -7 17 -21 17 -31 0 -9 14 -57 30 -106
17 -49 35 -111 40 -139 5 -27 23 -115 39 -195 16 -80 32 -183 36 -230 l6 -85
-23 55 c-28 65 -27 63 -102 168 -32 45 -70 89 -85 97 -14 7 -51 38 -82 67 -64
63 -111 98 -131 98 -7 0 -36 22 -65 49 -43 41 -52 46 -56 31 -4 -14 -1 -17 12
-12 13 5 14 3 4 -9 -10 -12 -9 -20 2 -36 8 -11 11 -24 7 -28 -4 -5 -2 -5 4 -2
7 4 15 0 18 -9 4 -10 2 -13 -7 -8 -6 4 12 -18 42 -49 30 -31 58 -55 63 -54 4
1 18 -13 29 -31 16 -24 17 -31 6 -26 -26 10 -28 -28 -4 -79 13 -26 27 -44 31
-40 4 4 3 -4 -2 -18 -7 -16 -7 -31 -1 -40 8 -12 10 -12 8 1 -1 8 -1 22 0 30 1
13 3 13 10 1 5 -8 8 -23 6 -33 -4 -17 0 -19 35 -22 8 -1 14 -9 12 -19 -2 -9 2
-25 7 -35 7 -10 11 -12 11 -4 0 7 5 10 10 7 6 -4 7 -12 4 -18 -5 -9 -4 -9 6 0
10 9 8 17 -8 41 -12 16 -28 35 -37 42 -17 14 -21 90 -5 90 6 0 10 -5 10 -12 0
-6 3 -9 6 -6 6 7 -13 43 -41 77 -18 21 -14 20 40 -9 86 -47 89 -51 89 -117 0
-74 -9 -166 -17 -179 -3 -6 6 -9 23 -8 l29 2 -15 -32 -16 -31 21 23 c26 26 25
26 42 5 12 -15 12 -16 -1 -8 -12 6 -13 6 -2 -6 11 -12 14 -12 22 1 5 8 10 13
11 10 0 -3 2 -13 4 -22 2 -10 -2 -18 -8 -19 -15 -1 23 -17 42 -18 8 -1 11 5 7
17 -4 10 2 7 13 -8 11 -14 33 -40 50 -59 17 -19 31 -39 31 -44 0 -5 6 -4 13 2
10 8 14 7 14 -4 0 -8 -4 -15 -9 -15 -4 0 -8 -9 -8 -20 0 -11 4 -20 10 -20 5 0
7 7 4 15 -5 12 -2 13 17 6 13 -4 24 -13 24 -20 0 -13 14 -16 23 -5 4 4 0 3 -8
-1 -13 -8 -13 -7 -1 8 15 18 26 23 16 7 -5 -9 15 -15 37 -11 4 0 5 -5 2 -13
-3 -8 0 -17 7 -22 7 -4 15 -2 17 4 2 7 8 12 13 12 4 0 6 -8 2 -17 -5 -15 -3
-16 8 -6 7 7 27 13 43 12 26 0 28 -2 11 -8 -11 -5 -25 -6 -31 -4 -14 5 -27
-24 -14 -32 5 -3 11 -1 15 5 4 6 10 8 14 5 15 -9 42 20 36 38 -5 12 -14 15
-31 11 -32 -8 -53 33 -36 71 17 37 15 82 -5 93 -24 14 41 23 152 22 218 -3
253 0 390 40 39 11 104 27 145 35 148 29 207 45 340 90 74 25 144 45 155 45
30 0 215 39 245 51 14 6 64 17 112 25 48 8 129 25 180 40 51 14 115 29 142 34
27 5 50 11 52 13 2 2 -9 15 -24 29 -27 25 -28 25 -87 12 -33 -8 -80 -18 -105
-23 -63 -12 -139 -31 -175 -43 -16 -5 -68 -12 -115 -14 -47 -3 -98 -12 -115
-20 -16 -8 -87 -27 -156 -44 -69 -16 -139 -35 -155 -41 -16 -7 -49 -15 -74
-20 -25 -4 -79 -19 -120 -32 -87 -29 -314 -86 -382 -96 -51 -8 -302 3 -388 17
l-55 9 43 8 c50 9 39 25 -17 25 -27 0 -32 3 -23 12 15 15 206 13 246 -2 33
-12 39 -12 32 -2 -2 4 22 3 56 -2 62 -10 129 0 258 39 30 9 118 32 195 50 183
44 275 69 301 83 27 14 194 52 231 52 16 0 57 9 93 20 60 18 92 25 235 51 66
11 185 49 185 59 0 4 -7 13 -15 20 -16 14 -109 6 -154 -12 -14 -6 -53 -15 -86
-19 -33 -4 -116 -17 -185 -28 -154 -26 -170 -26 -170 -4 0 14 -5 12 -27 -9
-38 -35 -57 -43 -133 -57 -36 -7 -82 -22 -104 -33 -21 -11 -75 -29 -120 -40
-44 -10 -106 -25 -136 -32 -30 -7 -77 -21 -105 -30 -27 -10 -84 -21 -125 -26
-41 -5 -88 -13 -103 -19 -43 -17 -94 -13 -138 10 -25 12 -69 22 -112 25 -127
9 -136 23 -143 214 -2 69 -7 136 -10 150 -6 22 -7 23 -13 6 -6 -17 -9 -15 -21
13 -12 29 -11 34 10 56 16 17 34 25 56 25 18 0 34 4 36 10 2 5 29 1 66 -10 35
-11 71 -20 80 -19 10 0 -17 10 -58 23 -41 13 -88 28 -103 35 -16 6 -39 11 -52
11 -34 0 -75 21 -75 37 0 18 66 46 111 47 55 1 150 -35 159 -60 11 -27 34 -33
136 -33 45 0 88 -3 96 -6 21 -8 193 29 281 60 39 15 92 32 117 40 25 7 77 25
116 39 39 14 113 32 165 41 52 8 123 22 159 30 212 47 231 45 267 -29 l21 -42
-32 4 c-17 3 -25 7 -18 9 6 3 12 9 12 15 0 7 -24 9 -72 4 -40 -4 -102 -9 -138
-12 -70 -6 -158 -26 -345 -81 -188 -55 -216 -63 -274 -73 -30 -5 -59 -14 -65
-20 -5 -5 -38 -10 -71 -10 -37 0 -75 -7 -94 -16 -22 -11 -45 -14 -74 -10 -97
15 -127 15 -142 0 -11 -12 -12 -20 -5 -35 8 -14 7 -19 -1 -19 -7 0 -9 -3 -6
-7 4 -3 73 -8 154 -10 133 -4 154 -2 208 17 214 78 393 133 475 146 52 8 118
19 145 24 28 5 82 14 120 20 39 7 87 19 108 26 20 8 62 14 92 14 l54 0 138
-161 c76 -89 143 -170 148 -180 6 -11 28 -33 48 -50 20 -17 37 -37 37 -44 0
-8 34 -49 76 -92 42 -43 94 -104 115 -135 44 -65 49 -100 23 -179 -9 -27 -14
-53 -10 -56 3 -3 30 3 60 15 52 20 56 20 74 4 10 -9 27 -36 37 -59 17 -41 17
-47 0 -155 -19 -126 -41 -245 -55 -299 -8 -28 -23 -45 -77 -81 -81 -56 -145
-82 -278 -115 -54 -14 -112 -31 -127 -39 -16 -8 -61 -21 -101 -29 -39 -7 -106
-21 -147 -30 -41 -9 -93 -21 -115 -25 -22 -5 -56 -16 -75 -24 l-35 -15 55 -1
c30 0 90 -2 133 -4 42 -2 77 0 77 5 0 5 12 9 27 9 45 0 187 32 223 50 19 10
60 23 90 30 82 18 191 57 220 78 14 10 39 26 56 35 20 10 36 29 43 49 l11 33
-25 -31 c-30 -38 -95 -74 -133 -73 -23 0 -19 4 29 28 31 15 72 39 90 53 19 14
42 28 52 31 16 6 16 4 2 -22 -8 -16 -17 -47 -21 -69 -5 -35 -15 -47 -60 -81
-75 -56 -96 -66 -201 -92 -51 -12 -93 -26 -93 -31 0 -4 43 -8 95 -8 57 0 95 4
95 10 0 6 10 10 23 10 24 0 52 15 52 27 0 4 15 24 33 43 18 19 42 49 54 66 15
21 29 31 45 30 29 -1 29 -19 2 -57 -19 -28 -20 -31 -5 -48 21 -23 20 -38 -1
-50 -15 -9 -12 -10 15 -11 17 0 32 -4 32 -10 0 -5 7 -10 16 -10 8 0 12 5 9 10
-4 6 15 10 49 10 30 0 57 4 60 9 4 5 -12 7 -36 4 -41 -4 -42 -3 -23 12 11 8
25 13 32 11 20 -8 15 8 -7 22 -25 16 -25 27 1 53 30 30 37 14 8 -17 l-24 -27
27 17 c51 33 44 81 -8 57 -36 -16 -42 -7 -10 14 28 19 34 35 12 35 -7 0 -16 9
-19 20 -4 15 5 27 36 48 23 15 44 36 46 47 2 11 11 25 20 33 14 11 12 12 -14
8 -105 -18 -111 -18 -91 -2 25 20 15 31 -14 16 -41 -22 -30 -3 18 30 26 18 48
35 50 36 8 6 -20 43 -36 48 -32 11 -45 47 -48 143 -5 114 8 122 61 35 147
-237 310 -543 338 -634 l12 -39 100 2 c55 0 102 0 105 -1 3 -1 26 -3 52 -4
l48 -2 40 78 c22 43 40 83 40 88 0 6 9 24 20 40 11 17 29 43 39 59 31 46 12
141 -25 127 -20 -8 -29 35 -10 46 28 16 18 37 -24 48 -21 6 -42 15 -45 21 -8
12 13 39 39 49 16 6 10 11 -37 35 -66 32 -110 73 -139 130 -22 42 -78 112 -78
97 0 -5 7 -26 15 -46 8 -20 14 -36 12 -36 -5 0 -101 158 -121 200 l-17 35 22
-25 c12 -14 26 -26 33 -26 6 -1 18 -2 28 -3 9 0 25 -16 36 -33 12 -18 34 -52
51 -75 17 -24 37 -56 46 -73 13 -25 20 -29 40 -24 15 4 53 -4 98 -21 162 -59
202 -185 137 -432 -16 -62 -36 -123 -44 -135 -9 -12 -16 -30 -16 -39 0 -9 -9
-28 -21 -43 -20 -26 -16 -32 15 -20 9 3 13 10 10 15 -3 5 2 9 10 9 9 0 16 4
16 10 0 5 3 9 8 8 4 0 16 3 27 7 19 9 19 9 -5 16 -22 5 -20 8 23 19 26 7 47
18 47 25 0 7 7 16 16 19 25 10 36 7 28 -6 -5 -9 -2 -9 9 1 33 27 19 34 -55 27
l-73 -6 29 24 c16 13 50 31 75 39 33 10 47 20 49 36 3 17 -2 21 -25 21 -16 0
-38 -7 -49 -15 -27 -20 -51 -20 -34 0 8 10 15 62 19 141 l6 126 45 38 c25 21
42 42 37 46 -4 4 -22 -7 -40 -24 -18 -18 -36 -32 -40 -32 -12 0 -8 21 8 36 8
9 18 27 21 41 6 23 -17 150 -37 198 -12 31 -17 100 -9 116 5 8 9 68 11 134 3
134 5 145 25 145 8 0 14 10 14 26 0 14 -4 23 -10 19 -15 -9 -25 24 -11 38 9 9
11 8 5 -7 -5 -14 -3 -17 7 -14 8 3 17 21 20 41 3 22 2 34 -4 30 -6 -4 -7 24
-2 78 12 139 23 199 36 199 5 0 9 14 9 30 0 17 -4 30 -10 30 -5 0 -10 14 -10
30 0 19 -5 30 -14 30 -8 0 -17 10 -19 23 -5 20 -5 19 -4 -3 1 -14 -1 -29 -4
-35 -8 -13 -25 -90 -43 -195 -8 -47 -22 -116 -30 -155 -12 -55 -14 -141 -13
-413 2 -189 0 -345 -4 -348 -4 -2 -24 20 -45 48 -41 55 -52 60 -188 89 -51 11
-61 17 -82 51 -28 45 -25 58 16 58 24 0 32 -6 44 -34 19 -46 42 -56 121 -56
62 0 69 -2 96 -31 l29 -31 0 32 c0 49 -46 90 -103 90 -32 0 -56 8 -88 30 -24
16 -51 30 -60 30 -27 0 -99 98 -99 134 0 19 30 21 49 3 11 -10 11 -8 2 11 -16
31 -48 49 -98 55 l-42 5 14 -28 c8 -16 23 -35 33 -42 20 -14 76 -107 70 -114
-3 -2 -17 9 -31 26 -30 33 -35 34 -91 19 -34 -9 -41 -8 -62 12 -13 12 -26 32
-30 43 -3 12 -17 32 -29 46 -13 14 -48 63 -79 110 -31 47 -85 123 -121 169
-60 77 -77 112 -41 82 26 -22 196 -10 196 14 0 27 -50 48 -99 41 -137 -20
-143 -20 -139 -1 5 29 104 64 181 65 60 0 67 2 67 20 0 44 -142 39 -254 -9
-27 -12 -54 -20 -60 -18 -7 2 -11 34 -11 83 l0 79 -30 5 c-30 6 -30 7 15 20
51 15 73 30 46 30 -33 0 -98 -23 -103 -37 -10 -26 -54 -14 -90 24 -55 60 -58
71 -27 83 15 6 89 15 163 21 75 6 153 14 175 19 21 5 47 5 58 1 19 -7 19 -7
-1 -25 -12 -11 -21 -25 -21 -32 0 -7 -13 -24 -30 -37 -18 -16 -25 -27 -17 -30
9 -3 8 -12 -5 -35 -10 -16 -18 -35 -18 -41 0 -5 -11 -27 -25 -47 -27 -40 -33
-63 -12 -46 6 5 37 17 67 26 30 9 66 25 80 36 24 20 23 20 -30 -1 -30 -11 -66
-25 -80 -30 -24 -9 -24 -9 -5 7 11 9 45 27 75 41 65 30 100 60 100 85 0 11 -4
16 -10 13 -5 -3 -10 0 -10 7 0 7 -19 -9 -41 -35 -23 -26 -44 -46 -46 -43 -3 3
13 26 36 52 23 26 44 59 47 73 3 14 15 43 26 64 17 33 18 42 8 68 -11 25 -15
27 -28 17 -11 -9 -9 -1 6 25 12 21 22 40 22 41 0 2 -12 7 -27 11 -33 8 -63
-22 -63 -64 0 -18 -12 -39 -36 -62 -20 -18 -34 -27 -32 -19 6 20 -59 39 -115
34 -49 -5 -40 1 16 11 70 11 28 25 -61 19 -125 -8 -152 -17 -77 -25 l60 -6
-70 0 c-38 0 -88 -5 -111 -13 -32 -9 -46 -10 -63 -1 -58 31 26 52 234 58 171
4 219 13 229 39 8 22 -36 35 -139 42 l-90 6 75 11 75 11 -42 13 c-24 6 -43 18
-43 25 0 7 -11 23 -24 36 -14 12 -28 37 -32 54 -9 42 -40 80 -72 87 -27 7 -27
7 4 8 40 1 58 19 38 38 -10 10 -24 12 -47 8 l-32 -6 33 20 c23 15 49 21 92 21
59 0 59 0 90 45 17 25 35 45 40 45 5 0 22 11 39 25 42 36 53 107 22 138 l-22
22 12 -33 c17 -49 5 -77 -46 -107 -42 -24 -62 -51 -79 -106 -4 -14 -10 -15
-45 -6 -23 6 -41 14 -41 18 0 4 29 34 65 65 56 50 65 62 66 93 1 20 5 47 9 61
6 20 8 16 10 -25 1 -27 5 -58 9 -68 6 -17 8 -17 20 -4 9 12 10 21 2 36 -6 11
-11 28 -11 38 0 27 68 158 82 159 7 1 19 2 26 3 11 1 12 17 7 76 -7 72 -6 76
24 121 33 51 41 52 15 2 -9 -16 -11 -27 -5 -23 31 18 41 69 52 242 5 98 14
196 19 218 5 22 10 58 10 81 0 27 6 47 19 58 10 9 27 43 37 74 l18 57 7 -35
c4 -19 4 -73 -2 -120 -5 -47 -12 -114 -15 -150 -3 -35 -8 -68 -11 -73 -3 -4
-9 -53 -14 -109 -7 -84 -13 -109 -39 -155 -36 -63 -24 -62 20 2 20 29 30 56
30 80 0 44 19 126 33 140 6 7 7 -3 3 -30 -3 -22 -8 -67 -11 -100 l-4 -60 9 50
c23 117 53 231 66 250 14 19 14 19 14 -5 0 -14 -9 -45 -20 -69 -11 -24 -20
-54 -20 -66 0 -13 -4 -35 -10 -49 -15 -40 -3 -31 21 15 11 23 16 38 10 35 -7
-4 -8 -1 -5 8 3 9 10 14 14 11 11 -7 65 94 95 176 13 36 32 81 43 98 11 18 17
41 15 52 -4 13 2 28 16 40 12 11 35 47 51 79 17 33 32 60 35 60 5 0 -29 -90
-45 -121 -6 -10 -10 -28 -10 -41 0 -13 -4 -28 -9 -34 -5 -5 -23 -36 -40 -69
-32 -62 -22 -53 29 25 16 25 30 56 30 70 0 52 88 208 106 190 7 -7 18 -2 34
15 13 14 20 25 15 25 -4 0 4 9 17 20 14 11 28 30 31 42 l6 23 -18 -23 c-15
-20 -23 -23 -57 -18 -36 6 -37 5 -14 -6 24 -12 22 -13 -27 -16 -63 -4 -118 9
-118 29 0 10 14 14 50 15 62 1 92 10 104 32 8 15 2 17 -53 17 -81 0 -120 24
-164 98 -19 34 -50 68 -73 84 -22 14 -37 28 -35 30 12 12 80 -38 148 -110 72
-77 77 -81 94 -65 16 16 15 18 -17 32 l-34 14 40 2 c22 0 66 11 97 23 46 18
65 32 97 75 22 29 48 76 59 105 21 55 76 178 117 262 30 60 38 141 14 137 -8
-1 -76 14 -150 34 -122 33 -150 36 -304 41 -101 3 -215 0 -280 -7 -263 -28
-267 -28 -500 41 -263 78 -302 84 -574 84 -243 0 -243 0 -262 -24 -10 -13 -19
-33 -19 -46 0 -33 -20 -83 -35 -89 -8 -3 -41 -8 -74 -12 l-59 -6 -11 38 c-15
55 -14 96 5 122 13 19 24 22 93 22 55 0 83 4 97 16 18 15 18 15 -3 9 -21 -6
-23 -3 -23 40 0 60 6 71 99 163 43 42 88 95 99 117 12 22 21 35 22 29 0 -14
-50 -89 -95 -141 l-37 -42 39 -19 c79 -40 91 -39 143 17 44 47 80 73 49 35 -7
-9 4 -5 26 9 68 44 95 68 89 78 -3 6 2 19 11 29 25 28 13 46 -37 53 -48 7 -83
1 -112 -19 -24 -16 -34 -6 -64 66 -29 74 -29 120 3 154 24 26 49 34 59 17 3
-5 18 -11 33 -14 16 -3 66 -20 113 -37 210 -78 274 -80 299 -9 15 44 14 48
-14 61 -19 8 -22 14 -13 20 10 6 10 8 -2 9 -8 0 10 7 40 14 66 16 229 79 334
129 82 40 148 50 181 29 37 -23 156 -28 218 -8 55 17 56 17 88 -6 21 -15 34
-19 36 -12 9 25 113 -43 113 -74 0 -7 14 -23 31 -35 39 -29 66 -74 89 -146 10
-31 25 -75 33 -97 19 -49 45 -214 45 -275 0 -25 3 -76 7 -115 4 -38 3 -94 -3
-123 -11 -59 -9 -62 50 -72 34 -7 38 -5 33 10 -3 10 1 33 8 51 34 81 38 106
26 173 -6 37 -8 85 -5 109 28 188 28 216 5 285 -28 82 -26 108 12 147 16 17
29 34 29 38 0 4 -17 7 -37 7 l-38 1 28 15 c15 8 25 20 21 25 -3 6 3 23 14 38
28 39 41 194 19 237 -8 16 -18 61 -22 99 -10 101 -38 182 -76 221 -18 19 -37
34 -43 34 -5 0 6 -16 25 -36 l34 -36 -36 24 c-21 14 -52 30 -70 37 -19 7 -63
26 -99 41 -36 15 -89 35 -117 45 -29 9 -56 21 -59 27 -4 7 2 7 17 3 28 -9 115
-34 144 -41 11 -3 -11 12 -50 33 -38 21 -81 46 -95 56 -13 9 -39 17 -57 17
-17 0 -35 5 -38 10 -3 6 -13 10 -22 10 -12 0 -11 -4 5 -17z m-111 -41 c38 -20
93 -77 93 -97 0 -4 -16 9 -37 30 -35 36 -69 55 -123 69 -19 5 -17 2 10 -14
l35 -20 -37 6 c-53 9 -47 -1 11 -21 26 -8 59 -27 72 -41 l24 -26 -37 21 c-42
25 -160 61 -200 61 -39 0 -44 18 -6 23 l33 4 -36 1 c-20 1 -60 -3 -89 -8 -74
-14 -73 -6 2 18 86 29 224 25 285 -6z m523 -1968 c-38 -141 -89 -211 -168
-234 -87 -24 -107 -24 -138 5 l-29 26 32 -15 c38 -19 54 -20 104 -5 34 11 40
18 55 62 11 33 14 64 10 94 -6 44 -5 46 45 94 28 27 55 49 59 49 5 0 16 26 27
58 l18 57 3 -58 c2 -36 -5 -86 -18 -133z m-805 66 c17 -30 42 -60 55 -66 93
-44 122 -59 178 -93 84 -52 91 -59 136 -145 34 -63 38 -78 29 -98 l-12 -23 0
26 c-1 15 -8 29 -16 33 -9 3 -15 18 -15 34 0 35 -76 120 -138 155 -21 12 -51
31 -66 41 -23 16 -32 17 -47 8 -16 -10 -21 -8 -34 12 -29 44 -72 59 -166 55
l-86 -4 30 48 c59 96 105 101 152 17z m6 -682 c6 -12 9 -38 5 -62 -20 -137
-31 -166 -67 -166 -32 0 -42 35 -30 101 7 33 9 65 5 72 -5 8 -2 7 9 -2 9 -7
17 -9 17 -3 0 5 -7 15 -15 22 -20 17 -19 36 5 60 23 23 51 15 71 -22z m-386
-88 c4 -22 16 -51 27 -65 18 -24 19 -31 9 -118 -23 -204 -60 -462 -68 -483
-10 -26 -55 112 -60 184 -3 34 0 77 7 95 6 18 15 65 20 105 4 43 15 81 24 91
13 15 14 26 6 71 -13 68 -13 116 0 141 16 29 28 23 35 -21z m459 -140 c9 -104
-3 -145 -56 -191 -47 -42 -78 -50 -78 -21 0 10 12 47 26 82 14 35 30 91 35
123 6 33 17 76 25 96 l15 36 13 -25 c8 -14 16 -59 20 -100z m-220 102 c10 -16
57 -306 52 -319 -3 -7 -17 -13 -32 -13 -14 0 -39 -9 -54 -20 -29 -20 -29 -20
-39 -1 -15 28 -14 67 4 101 10 19 16 64 18 122 3 88 16 138 37 138 5 0 11 -4
14 -8z m-102 -748 c-2 -10 -6 -56 -9 -101 -6 -103 -24 -127 -102 -138 -29 -4
-55 -4 -58 -1 -4 3 3 6 14 6 39 0 61 39 68 125 7 69 11 83 36 108 31 31 56 31
51 1z"/>
<path d="M3239 5282 c-15 -9 -45 -29 -67 -44 -77 -52 -71 -55 123 -62 152 -5
217 -18 420 -82 183 -57 268 -65 472 -40 92 12 190 16 295 14 l157 -3 -36 30
c-20 17 -46 35 -57 42 -26 15 -304 17 -467 3 -115 -10 -116 -10 -205 20 -99
33 -110 36 -74 15 14 -8 19 -14 13 -15 -7 0 -21 8 -31 18 -9 9 -40 22 -67 28
-28 7 -77 19 -110 29 -33 9 -80 19 -105 21 -25 3 -69 14 -98 25 -65 24 -129
24 -163 1z"/>
<path d="M1610 3043 c-45 -7 -190 -55 -196 -64 -10 -17 18 -39 51 -39 36 0
121 27 183 59 22 11 52 21 64 22 21 1 20 2 -7 14 -30 14 -49 16 -95 8z"/>
<path d="M1680 2966 c-29 -16 -78 -34 -135 -48 -22 -6 -47 -17 -55 -25 -13
-13 -13 -16 5 -29 15 -12 34 -14 80 -9 82 9 255 67 255 86 0 5 8 9 18 9 15 1
15 2 1 10 -28 17 -142 21 -169 6z"/>
<path d="M4040 2943 c0 -5 -20 -43 -44 -85 -42 -74 -76 -193 -62 -216 3 -6 2
-22 -4 -37 -7 -19 -6 -35 5 -60 7 -19 16 -35 19 -35 11 0 86 72 86 82 0 6 11
23 25 40 31 37 34 73 5 65 -18 -5 -18 -4 2 23 15 21 18 34 12 51 -9 24 -11 34
-13 57 0 7 -12 17 -25 23 -21 10 -22 14 -12 41 l11 30 6 -28 c6 -27 7 -27 8 8
0 20 -3 40 -9 43 -5 3 -10 2 -10 -2z"/>
<path d="M2120 2661 c-8 -6 -26 -11 -39 -11 -13 0 -64 -18 -113 -41 -96 -43
-133 -47 -51 -6 26 14 62 32 78 41 l30 16 -26 0 c-14 0 -54 -20 -90 -43 -56
-38 -74 -45 -134 -50 -57 -5 -78 -3 -113 13 -40 18 -58 19 -207 13 -90 -3
-169 -9 -175 -13 -18 -11 0 -38 28 -44 78 -15 209 -16 251 -1 59 21 114 19
161 -5 22 -11 58 -20 80 -20 59 0 183 20 197 32 31 25 135 66 207 82 59 14 98
16 157 11 51 -5 79 -3 79 3 0 17 -30 22 -169 28 -88 3 -141 2 -151 -5z"/>
<path d="M2335 2584 c-134 -15 -237 -44 -372 -104 -56 -26 -70 -28 -140 -23
-43 3 -97 12 -120 20 -42 15 -56 15 -187 -4 -29 -4 -37 -2 -31 7 6 9 -1 10
-26 5 -78 -17 -93 -31 -63 -56 12 -10 57 -13 186 -11 105 1 178 -2 190 -9 29
-16 143 -12 207 7 31 9 85 29 121 44 78 35 271 86 356 94 35 4 73 2 89 -4 40
-15 43 -5 3 17 -48 26 -90 30 -213 17z"/>
<path d="M660 2460 c8 -5 11 -10 6 -10 -5 0 -3 -6 3 -14 9 -10 9 -16 1 -21 -7
-5 -4 -18 10 -41 11 -20 20 -43 20 -53 0 -10 8 -29 18 -42 11 -13 31 -49 46
-79 55 -110 73 -142 87 -151 11 -7 9 -9 -9 -9 -12 0 -43 13 -69 29 -52 32 -75
32 -30 -1 15 -11 27 -27 27 -36 0 -12 -6 -10 -27 9 l-27 24 20 -30 c42 -67
175 -172 277 -220 21 -10 62 -45 92 -79 29 -34 66 -74 80 -91 l27 -30 -26 37
c-31 44 -32 52 -7 45 15 -4 18 -1 13 12 -19 46 -124 162 -222 244 -25 21 -39
35 -32 32 6 -3 12 0 12 8 0 16 -34 49 -68 67 -13 6 -21 14 -18 17 3 3 21 -4
41 -16 36 -21 75 -28 75 -13 0 5 -14 21 -31 38 -35 33 -103 129 -72 102 11
-10 28 -18 38 -18 16 0 13 6 -14 34 -19 20 -35 48 -37 64 -7 58 -58 122 -131
163 -60 34 -113 55 -73 29z"/>
<path d="M2105 2441 c-27 -16 -68 -48 -90 -72 -22 -23 -34 -39 -27 -35 7 5 12
1 12 -9 0 -11 10 -5 34 19 21 23 43 36 59 36 25 0 51 18 59 41 3 8 12 7 31 -6
24 -15 27 -23 22 -49 -4 -17 -20 -43 -36 -58 -28 -27 -39 -31 -110 -43 -19 -3
-44 -12 -55 -20 -17 -13 -16 -14 14 -4 19 7 58 9 87 6 41 -4 58 -1 81 14 16
11 43 26 59 33 17 8 39 21 50 29 19 15 18 16 -17 10 -37 -5 -38 -4 -38 23 0
18 7 34 20 42 24 15 25 66 0 56 -15 -6 -126 -24 -145 -23 -5 0 2 7 18 15 15 8
27 17 27 19 0 7 -2 7 -55 -24z"/>
<path d="M2760 2003 c-8 -3 -38 -17 -67 -30 -50 -23 -54 -23 -98 -9 -55 19
-66 20 -88 4 -15 -11 -8 -13 40 -11 42 2 52 0 38 -6 -11 -5 -32 -10 -47 -10
-14 -1 -39 -12 -55 -25 -16 -13 -40 -26 -53 -29 -23 -4 -23 -4 4 -6 16 0 48
10 70 23 38 22 130 47 114 30 -11 -10 -151 -74 -165 -74 -6 0 -14 -4 -17 -9
-10 -16 78 1 99 19 11 10 37 23 57 28 20 6 52 21 70 35 34 26 92 57 104 57 8
0 -67 -73 -76 -75 -9 -2 -75 -45 -69 -45 28 0 101 48 137 90 40 46 40 57 2 43z"/>
<path d="M4220 1900 c-24 -9 -46 -22 -48 -28 -6 -19 61 -24 100 -8 51 22 74
20 92 -6 24 -33 21 -51 -5 -38 -40 22 -209 -18 -209 -49 0 -5 34 -8 75 -8 58
2 78 -2 91 -15 14 -14 15 -20 4 -32 -7 -9 -20 -16 -29 -16 -14 1 -14 2 2 11
25 14 21 29 -7 29 -16 0 -32 -11 -45 -28 l-20 -29 41 -39 c22 -21 53 -66 69
-99 24 -49 29 -55 29 -33 0 35 62 105 109 125 32 14 36 13 48 -3 7 -10 13 -24
13 -31 0 -7 18 -24 39 -38 47 -32 56 -70 29 -123 -13 -27 -18 -56 -16 -117 0
-44 3 -64 5 -45 6 45 17 58 55 62 18 2 34 10 36 18 4 12 3 13 -10 2 -20 -16
-42 -7 -58 24 -12 21 -11 30 3 59 9 20 17 42 17 49 0 20 28 28 52 15 17 -9 24
-8 34 6 8 10 11 22 8 27 -3 5 -11 2 -18 -7 -10 -13 -16 -7 -46 42 -50 86 -58
93 -101 93 -34 0 -39 3 -45 28 -12 54 -17 68 -43 106 -14 21 -35 55 -47 75
-20 36 -21 36 -90 38 -46 1 -84 -5 -114 -17z m217 -92 c59 -61 70 -127 26
-155 -16 -9 -43 -30 -60 -47 -18 -16 -33 -25 -33 -19 0 6 20 29 45 51 25 22
45 48 44 58 0 16 -2 15 -10 -4 -5 -14 -16 -22 -26 -20 -19 3 -68 -76 -58 -93
4 -5 1 -17 -4 -26 -9 -16 -10 -16 -11 3 0 12 -18 42 -41 68 -42 47 -41 52 11
58 19 2 26 10 28 31 3 26 6 28 33 22 38 -8 45 9 26 63 -8 23 -12 42 -8 42 4 0
21 -15 38 -32z"/>
<path d="M3510 1213 c-14 -2 -45 -10 -70 -18 -25 -8 -83 -24 -130 -35 -86 -22
-170 -45 -271 -74 -31 -9 -67 -16 -80 -16 -31 0 -195 -39 -237 -56 -18 -8 -45
-14 -60 -13 -25 1 -25 2 6 9 19 4 39 13 44 18 7 7 -14 5 -51 -4 -35 -8 -66
-12 -71 -9 -5 3 -11 1 -15 -5 -4 -6 6 -10 22 -11 21 0 16 -4 -22 -15 -27 -7
-68 -18 -90 -23 -105 -23 -227 -63 -310 -102 -84 -38 -87 -39 -112 -16 l-22
20 10 -38 c6 -21 9 -53 7 -71 l-4 -32 23 24 c12 13 33 24 46 24 14 0 50 11 82
25 31 14 83 32 114 39 32 7 66 18 77 23 30 16 248 70 354 88 52 9 118 22 145
30 80 22 144 35 169 35 13 0 48 11 78 24 31 14 73 28 94 31 22 4 64 14 94 22
30 8 73 19 95 25 90 23 110 36 117 73 1 11 8 23 13 27 10 8 -2 8 -45 1z"/>
<path d="M3650 1143 c-30 -13 -64 -34 -76 -47 -25 -24 -89 -46 -204 -70 -41
-9 -124 -30 -185 -47 -60 -17 -132 -35 -160 -41 -149 -31 -239 -52 -315 -74
-46 -14 -108 -27 -136 -29 -29 -2 -85 -17 -126 -33 -40 -16 -93 -32 -118 -35
-44 -7 -45 -7 -17 8 15 9 27 18 27 21 0 11 -46 -9 -72 -31 -15 -13 -56 -33
-92 -46 -37 -13 -66 -27 -66 -31 0 -4 -7 -5 -15 -2 -8 4 -15 1 -15 -6 0 -6 -3
-9 -8 -6 -4 2 -18 -2 -32 -10 -19 -11 -20 -14 -5 -9 11 2 35 1 54 -5 29 -8 32
-7 26 8 -5 13 -3 14 6 5 9 -9 7 -17 -6 -35 -11 -15 -15 -17 -12 -5 4 9 2 17
-3 17 -13 0 -13 -27 -1 -35 5 -3 17 3 27 12 10 10 19 17 21 15 2 -2 27 5 56
16 28 11 74 23 102 27 27 4 68 17 90 30 36 21 125 45 245 65 117 20 505 113
615 148 17 5 53 14 80 20 146 31 155 34 199 73 24 21 52 39 62 39 49 0 144 70
144 106 0 20 -27 16 -90 -13z"/>
<path d="M2984 751 c-28 -10 -69 -31 -90 -48 -53 -42 -152 -92 -194 -98 -33
-5 -33 -5 11 14 25 11 61 29 80 41 28 17 29 20 9 15 -14 -4 -37 -14 -51 -21
-51 -26 -116 -35 -164 -23 -40 10 -44 14 -33 28 10 13 8 12 -8 -1 -11 -10 -27
-18 -35 -18 -8 0 -21 -5 -29 -11 -11 -7 -1 -8 32 -3 41 5 57 2 115 -27 37 -18
72 -35 77 -37 5 -3 6 0 2 7 -4 6 -1 11 7 11 21 0 120 55 173 95 65 50 74 43
14 -10 -28 -25 -57 -45 -64 -45 -8 0 -33 -22 -56 -50 -34 -41 -48 -50 -74 -50
-22 0 -40 -8 -56 -25 l-24 -25 30 4 c16 2 49 11 74 20 25 10 62 22 84 27 21 5
46 13 55 18 9 5 35 11 59 14 37 4 41 3 31 -9 -7 -9 -32 -27 -56 -41 -24 -14
-42 -28 -39 -30 6 -6 90 43 146 86 42 32 43 34 15 27 -41 -11 -85 -16 -85 -11
0 3 20 14 45 26 55 26 53 35 -3 16 l-41 -14 26 33 c14 19 36 37 49 40 13 3 28
12 34 20 9 10 2 9 -29 -3 -44 -17 -67 -36 -106 -87 -20 -26 -85 -66 -108 -66
-13 0 137 142 163 154 19 9 27 14 18 12 -10 -3 -20 -1 -23 4 -4 6 9 10 28 10
26 0 39 6 51 25 20 30 12 31 -60 6z"/>
</g>
</svg>
